HIERARCHY
ROOT Hips
{
    OFFSET 0.000000 0.000000 0.000000
    CHANNELS 6 Xposition Yposition Zposition Zrotation Xrotation Yrotation
    JOINT Spine
    {
        OFFSET -0.000000 6.993131 0.000000
        CHANNELS 3 Zrotation Xrotation Yrotation
        JOINT Spine1
        {
            OFFSET -0.000000 20.649729 0.000000
            CHANNELS 3 Zrotation Xrotation Yrotation
            JOINT Neck
            {
                OFFSET -0.000000 20.564924 1.869539
                CHANNELS 3 Zrotation Xrotation Yrotation
                JOINT Head
                {
                    OFFSET -0.000000 11.939490 -1.705642
                    CHANNELS 3 Zrotation Xrotation Yrotation
                    End Site
                    {
                        OFFSET -0.000000 21.320518 0.000000
                    }
                }
            }
            JOINT LeftShoulder
            {
                OFFSET 3.446977 19.850397 -0.038759
                CHANNELS 3 Zrotation Xrotation Yrotation
                JOINT LeftArm
                {
                    OFFSET 7.083611 0.000000 0.000000
                    CHANNELS 3 Zrotation Xrotation Yrotation
                    JOINT LeftForeArm
                    {
                        OFFSET 32.044487 0.000000 0.000000
                        CHANNELS 3 Zrotation Xrotation Yrotation
                        JOINT LeftHand
                        {
                            OFFSET 22.068741 0.000000 0.000000
                            CHANNELS 3 Zrotation Xrotation Yrotation
                            End Site
                            {
                                OFFSET 12.792312 0.000000 0.000000
                            }
                        }
                    }
                }
            }
            JOINT RightShoulder
            {
                OFFSET -3.365844 19.850397 -0.038759
                CHANNELS 3 Zrotation Xrotation Yrotation
                JOINT RightArm
                {
                    OFFSET -7.083611 0.000000 0.000000
                    CHANNELS 3 Zrotation Xrotation Yrotation
                    JOINT RightForeArm
                    {
                        OFFSET -32.044487 0.000000 0.000000
                        CHANNELS 3 Zrotation Xrotation Yrotation
                        JOINT RightHand
                        {
                            OFFSET -22.068741 0.000000 0.000000
                            CHANNELS 3 Zrotation Xrotation Yrotation
                            End Site
                            {
                                OFFSET -12.792312 0.000000 0.000000
                            }
                        }
                    }
                }
            }
        }
    }
    JOINT LeftUpLeg
    {
        OFFSET 8.528208 0.000000 0.000000
        CHANNELS 3 Zrotation Xrotation Yrotation
        JOINT LeftLeg
        {
            OFFSET -0.000000 -31.874865 0.000000
            CHANNELS 3 Zrotation Xrotation Yrotation
            JOINT LeftFoot
            {
                OFFSET -0.000000 -38.221939 0.000000
                CHANNELS 3 Zrotation Xrotation Yrotation
                JOINT LeftToeBase
                {
                    OFFSET -0.000000 -5.543335 12.792312
                    CHANNELS 3 Zrotation Xrotation Yrotation
                    End Site
                    {
                        OFFSET -0.000000 0.000000 3.411283
                    }
                }
            }
        }
    }
    JOINT RightUpLeg
    {
        OFFSET -8.528208 0.000000 0.000000
        CHANNELS 3 Zrotation Xrotation Yrotation
        JOINT RightLeg
        {
            OFFSET -0.000000 -31.874865 0.000000
            CHANNELS 3 Zrotation Xrotation Yrotation
            JOINT RightFoot
            {
                OFFSET -0.000000 -38.221939 0.000000
                CHANNELS 3 Zrotation Xrotation Yrotation
                JOINT RightToeBase
                {
                    OFFSET -0.000000 -5.543335 12.792312
                    CHANNELS 3 Zrotation Xrotation Yrotation
                    End Site
                    {
                        OFFSET -0.000000 0.000000 3.411283
                    }
                }
            }
        }
    }
}
MOTION
Frames:    10
Frame Time:    0.008333
35.651253    75.973198    25.850079    -3.537907    0.527484    90.472336    1.492603    -8.650510    0.422541    -4.371031    0.888104    0.343731    1.947258    10.136422    11.018527    -3.803908    5.007118    10.987754    20.071779    1.058080    -2.457964    -27.323380    4.742866    -4.784614    6.742773    0.941881    -7.074299    4.592602    1.391006    0.796215    -9.779748    0.876268    -0.347226    19.322933    2.452764    9.598567    -9.925377    5.690310    10.640905    -1.659040    6.678610    -4.655012    -3.719386    -2.409472    1.257697    2.536617    6.357771    2.321547    2.058206    -9.655428    -1.035641    0.000000    0.000000    0.000000    -9.634165    2.322248    -1.551983    11.630466    -0.536977    0.569554    -4.965544    -3.888277    -9.157506    0.000000    0.000000    0.000000    
35.578243    75.975624    25.844261    -3.526814    0.529261    90.502563    1.456205    -8.608329    0.424576    -4.334514    0.929982    0.350379    2.003087    10.141421    10.975677    -3.715008    5.102698    10.951751    20.065609    1.015484    -2.513283    -27.296270    4.784855    -4.814260    6.704971    0.927354    -7.096427    4.355257    1.372194    0.753506    -9.828497    0.849597    -0.367958    19.305773    2.472270    9.639827    -9.797088    5.745741    10.477943    -1.559180    6.703920    -4.651600    -3.723104    -2.477411    1.214907    2.528539    6.398007    2.299773    2.084789    -9.645182    -1.001294    0.000000    0.000000    0.000000    -9.645031    2.268537    -1.608798    11.639598    -0.506355    0.526672    -5.177300    -3.906610    -9.081787    0.000000    0.000000    0.000000    
35.540607    75.977287    25.840607    -3.526974    0.532984    90.516708    1.437738    -8.572741    0.421958    -4.320821    0.917867    0.348912    2.023474    10.138487    10.957790    -3.646378    5.185774    10.941179    20.049284    1.006361    -2.515028    -27.265419    4.781609    -4.841105    6.652103    0.903879    -7.130427    4.285089    1.345759    0.722827    -9.826547    0.853865    -0.357129    19.274700    2.468072    9.644262    -9.733268    5.758153    10.415627    -1.511474    6.703279    -4.656084    -3.730041    -2.510305    1.190250    2.524249    6.403085    2.335137    2.070476    -9.632055    -1.015150    0.000000    0.000000    0.000000    -9.662447    2.228209    -1.610015    11.657742    -0.475658    0.553720    -4.936985    -3.883651    -9.166481    0.000000    0.000000    0.000000    
35.506893    75.980690    25.837099    -3.513274    0.534603    90.524223    1.408237    -8.561414    0.425010    -4.268313    0.992634    0.356783    2.018376    10.092742    10.942368    -3.598515    5.238100    10.930796    20.044226    0.960339    -2.520720    -27.265738    4.798057    -4.836022    6.595397    0.809738    -7.204257    4.270473    1.252301    0.723746    -9.902916    0.842355    -0.388402    19.284327    2.463114    9.682511    -9.650534    5.757653    10.347186    -1.575789    6.692199    -4.667736    -3.733412    -2.567877    1.379149    2.543762    6.485695    2.060181    2.077685    -9.628883    -0.939557    0.000000    0.000000    0.000000    -9.664338    2.219738    -1.588891    11.647763    -0.495125    0.486651    -4.908558    -3.860430    -9.118525    0.000000    0.000000    0.000000    
35.458176    76.000275    25.818657    -3.545477    0.605888    90.544930    1.306746    -8.581274    0.440260    -4.212270    1.063890    0.381535    2.015682    10.054677    10.907006    -3.533893    5.266184    10.900419    20.055191    0.904686    -2.554200    -27.284307    4.772292    -4.859485    6.529540    0.746958    -7.250808    4.319072    1.188140    0.717813    -9.965594    0.793839    -0.465395    19.275719    2.501408    9.708017    -9.573915    5.754543    10.277987    -1.661206    6.680373    -4.707275    -3.839327    -2.655982    1.326009    2.565925    6.508363    2.106144    2.027660    -9.470236    -0.942106    0.000000    0.000000    0.000000    -9.768471    2.122955    -1.603401    11.678601    -0.440152    0.469440    -4.865486    -3.834030    -9.137195    0.000000    0.000000    0.000000    
35.429138    75.986221    25.828058    -3.529813    0.539674    90.531151    1.283616    -8.632584    0.501947    -4.095836    1.247254    0.449718    2.120570    10.006609    10.814987    -3.623311    5.310534    10.790437    20.116911    0.814603    -2.614472    -27.346785    4.716185    -4.932655    6.478448    0.709308    -7.271094    4.313545    1.148477    0.721598    -10.005411    0.736940    -0.612848    19.234774    2.547563    9.738676    -9.499886    5.755045    10.204604    -1.743473    6.671971    -4.739805    -3.749174    -2.638564    1.220462    2.527896    6.469994    2.290497    2.099288    -9.561852    -1.028099    0.000000    0.000000    0.000000    -9.682143    2.104436    -1.559679    11.656200    -0.438332    0.412254    -4.880312    -3.841767    -9.118219    0.000000    0.000000    0.000000    
35.388130    75.990288    25.825714    -3.545013    0.526891    90.507515    1.244450    -8.667419    0.573917    -4.037902    1.356458    0.527569    2.220673    9.986447    10.741271    -3.637112    5.334540    10.706824    20.208002    0.745996    -2.687973    -27.408590    4.643362    -5.027808    6.411305    0.724289    -7.243029    4.317322    1.156653    0.694714    -10.008998    0.702384    -0.732955    19.186138    2.588095    9.737731    -9.445695    5.762269    10.132998    -1.823083    6.671882    -4.752864    -3.735735    -2.689622    1.262609    2.527875    6.477695    2.264706    2.085627    -9.539351    -1.016076    0.000000    0.000000    0.000000    -9.672275    2.038555    -1.482658    11.656997    -0.426148    0.342901    -4.891151    -3.816080    -9.114231    0.000000    0.000000    0.000000    
35.360619    75.988625    25.823605    -3.536388    0.526885    90.514503    1.196907    -8.697201    0.615734    -3.977416    1.477337    0.576016    2.279158    9.989303    10.689168    -3.648808    5.325540    10.647758    20.251270    0.698996    -2.754270    -27.439636    4.613932    -5.085034    6.389149    0.733806    -7.238569    4.262084    1.164626    0.706017    -10.054893    0.663180    -0.824205    19.174191    2.630945    9.743953    -9.435816    5.818236    10.050028    -1.772843    6.717371    -4.715444    -3.733520    -2.696758    1.255431    2.515509    6.460340    2.285794    2.100806    -9.521528    -1.031034    0.000000    0.000000    0.000000    -9.663759    2.020740    -1.518793    11.634547    -0.409991    0.390580    -4.915380    -3.813487    -9.128905    0.000000    0.000000    0.000000    
35.336067    75.995651    25.806479    -3.533833    0.592512    90.571678    1.100924    -8.745756    0.633591    -3.943975    1.613105    0.604990    2.356417    9.962425    10.638646    -3.682096    5.370580    10.588330    20.289150    0.650013    -2.810666    -27.467215    4.588800    -5.172033    6.381595    0.769969    -7.186156    4.160459    1.196593    0.703824    -10.077293    0.618027    -0.900459    19.148821    2.659715    9.728483    -9.413940    5.844081    9.966543    -1.664115    6.729700    -4.700767    -3.832166    -2.703984    1.151331    2.543371    6.438626    2.378203    2.061599    -9.417324    -1.079058    0.000000    0.000000    0.000000    -9.755340    2.027418    -1.570970    11.662509    -0.421466    0.438811    -4.918563    -3.799299    -9.182047    0.000000    0.000000    0.000000    
35.326843    75.998650    25.805813    -3.510417    0.596734    90.577301    1.061846    -8.791758    0.657295    -3.894336    1.751873    0.635178    2.383836    9.931290    10.625148    -3.670873    5.438988    10.575245    20.313463    0.617268    -2.852629    -27.477495    4.538197    -5.218865    6.339321    0.814699    -7.150010    4.091077    1.236007    0.695474    -10.115293    0.584396    -0.941184    19.145613    2.673218    9.723722    -9.365989    5.845817    9.908554    -1.847104    6.731341    -4.788192    -3.834134    -2.650468    1.116937    2.535101    6.372763    2.426095    2.057056    -9.377068    -1.102248    0.000000    0.000000    0.000000    -9.733787    2.070064    -1.601362    11.619019    -0.467194    0.373714    -4.912785    -3.774512    -9.087337    0.000000    0.000000    0.000000    
